<svg id="Layer_1" data-name="Layer 1" xmlns="http://www.w3.org/2000/svg" viewBox="0 0 182.73 182.73"><title>GE</title><path d="M155.9,26.83Q129.07,0,91.37,0T26.82,26.83Q0,53.65,0,91.36q0,38,26.82,64.67t64.55,26.7q37.69,0,64.53-26.7t26.83-64.67q0-37.69-26.83-64.53Zm-2.92,126q-25.42,25.58-61.62,25.57-35.94,0-61.5-25.57T4.3,91.31q0-36.21,25.56-61.66T91.36,4.2q35.94,0,61.5,25.57t25.56,61.54q0,36-25.44,61.54ZM161.47,50a60.26,60.26,0,0,0-34.93-27.1q-10.89-3.29-18.48-3.29-8.36,0-13.92,4.18T86.05,28q-6.33,0-6.33-6.08,0-4.56,4.8-7.47t12.92-2.91q12.9,0,19.48,3.29l.26-.76A75.37,75.37,0,0,0,91.37,9.76q-23.29,0-41.51,11.4A60.44,60.44,0,0,0,23,56.11,64,64,0,0,0,19.74,74.6a23.14,23.14,0,0,0,4.17,14.05q4.18,5.7,4.18,8.23Q28.09,103,22,103q-10.38,0-10.37-17.73a61.18,61.18,0,0,1,3-19.5l-.76-.25Q9.87,81.7,9.87,91.3q0,23.57,11.39,41.79a60.44,60.44,0,0,0,34.93,26.84,63.62,63.62,0,0,0,18.47,3.3q8.36,0,13.92-4.31t8.1-4.3q6.33,0,6.33,6.33,0,4.31-4.81,7.21t-12.91,2.92q-11.9,0-19.49-3l-.25.76q8.85,4,25.81,4,23.28,0,41.51-11.39a60.49,60.49,0,0,0,26.82-34.95q3.3-10.89,3.29-18.24,0-8.59-4.17-14.3t-4.18-8q0-6.33,6.08-6.33,4.54,0,7.46,4.94t2.92,13a71.68,71.68,0,0,1-3,19.5l.76.25a82,82,0,0,0,4.05-26.08Q172.86,68,161.47,50Zm-26.2,81.67a23.08,23.08,0,0,1-17.34,7.22q-12.41,0-19.73-9.12a28.21,28.21,0,0,1-6.59-18.74q0-19.75,18-29.12a12.13,12.13,0,0,1-2.53-3A251.92,251.92,0,0,1,83.77,93.58q-1,16.22-3.29,23-7.35,22.29-24.8,22.29c-4.73,0-8.35-1.44-10.89-4.31A15.15,15.15,0,0,1,41,124.23q0-9.63,9.11-18A81,81,0,0,1,62,97.64q3.56-2,14.68-7.85c.34-2,.59-3.63.76-4.81q-3.8,3.54-10.12,3.54-8.61,0-10.63-9.36-12.4-1-12.66-13.68-.24-10.89,6.08-10.89c1.35,0,2,.76,2,2.28,0,.17-.22,1.14-.64,2.91a20.73,20.73,0,0,0-.63,4.68q0,7.61,5.57,7.6a36.59,36.59,0,0,1,6.45-20.25q6.45-9.89,14.55-9.88,8.61,0,8.61,8.1,0,8.61-7,17.22T64.54,78.39q1,3.8,4.3,3.8,5.56,0,10.63-6.33Q82,62.95,89.33,62.94q3,0,3,3.3,0,4.31-7.08,11.9a38.34,38.34,0,0,0-.76,7.6q12.9-7.84,20-12.92A24,24,0,0,1,104,67a30.1,30.1,0,0,1,5.31-17.22q5.31-7.85,12.91-7.85,8.85,0,8.86,8.61,0,10.64-17.72,24.05a9,9,0,0,0,4.05,4.81c.34-.67,2.44-1,6.32-1q7.35,0,7.35,3.8,0,4.31-8.61,4.31a16.42,16.42,0,0,1-5.31-.51Q101,90.3,101,110a23,23,0,0,0,4.93,14.82,15.34,15.34,0,0,0,12.53,6.21,14.44,14.44,0,0,0,10.63-4.31,15.06,15.06,0,0,0,4.3-11.14q.25-12.41-8.6-12.41-5.56,0-5.82,5.57a8.07,8.07,0,0,0,1.77,5.07,6.8,6.8,0,0,1,1.77,3.79q0,3.3-3.54,3.3a7.7,7.7,0,0,1-6.33-3.3,13.66,13.66,0,0,1,1.89-18,15.39,15.39,0,0,1,10.76-4,14.87,14.87,0,0,1,12.4,5.83,22.28,22.28,0,0,1,4.56,14.18q0,8.86-7,16.08ZM121.73,49q-3,0-6.45,5.57a24.2,24.2,0,0,0-3.42,12.91q11.64-10.12,11.65-15.7c0-1.85-.59-2.78-1.78-2.78ZM76.94,49q-3.81,0-8.36,8T64,71.3A29.52,29.52,0,0,0,74.4,61.68q4.3-6.33,4.31-10.89A1.56,1.56,0,0,0,76.94,49ZM49.86,124.48q0,6.58,5.82,6.59,7.59,0,13.41-10.89a66.5,66.5,0,0,0,6.58-22q-25.81,12.67-25.81,26.34Z"/></svg>