<svg id="Ebene_1" data-name="Ebene 1" xmlns="http://www.w3.org/2000/svg" viewBox="0 0 1149.66 252.2"><title>bosch</title><g id="xfrm19"><path id="path59" d="M0,127.16A123.14,123.14,0,0,0,37.28,216a127.71,127.71,0,0,0,89.89,36.24,125.18,125.18,0,0,0,125-125c0-34-12.87-66-36.24-89.88A123.08,123.08,0,0,0,127.17,0,127.31,127.31,0,0,0,0,127.16Zm48.45,77.67h0C27,183.93,15.16,156.34,15.16,127.16a112.12,112.12,0,0,1,112-112c29.18,0,56.77,11.81,77.67,33.27a112.4,112.4,0,0,1,32.21,78.72A110,110,0,0,1,127.17,237,112.34,112.34,0,0,1,48.45,204.83ZM164.91,49.66v39H87.3v-39c0-4.89-1.64-5.3-3.18-5.3a5.22,5.22,0,0,0-2.75.79,95.24,95.24,0,0,0-46.2,82c0,32.93,16.84,62,46.2,79.86a5.27,5.27,0,0,0,2.75.77c2.95,0,3.18-3.11,3.18-3.14v-41.1h77.61v41.1c0,1.54.41,3.18,5.3,3.18a3,3,0,0,0,1.65-.47C199.73,190.73,217,160,217,127.16c0-33.58-17.3-65.77-44.07-82a5.17,5.17,0,0,0-2.75-.79A5.31,5.31,0,0,0,164.91,49.66ZM66.67,169.77c-9.38-14.32-13.75-27.86-13.75-42.61,0-19.4,7.47-35,13.75-44.6l3.13-4.81-.24,8.41v80.06s.08,2.62.08,2.62l.16,5.71ZM87.3,144.2V106.39h77.61v39.42H87.3Zm95.21-60.73-.23-7.65L185.45,81c8.93,14.54,13.84,31,13.84,46.19,0,19.5-7.4,34-13.85,44.4l-3.16,5.12s.25-8.59.25-8.63V84.44l.05.4-.07-1.37"/></g><g id="g26531"><g id="q57"><g id="xfrm58"><path id="path3190" d="M476.42,160.16c0-9.63-7.11-16.3-22-16.3h-29.9v32.85h30.63C467.6,176.71,476.42,172.26,476.42,160.16ZM471,95c0-9.39-6.38-15.82-15.93-15.82H424.48v31.13h29.9C465.14,110.27,471,102.36,471,95ZM521,164.85c0,28.16-25.95,46.69-52.17,46.69H383.34V44.31h78.37c30.14,0,51.93,15.06,51.93,46,0,26.43-23,34.33-23,34.33,0,.25,30.35,7.17,30.35,40.26"/></g></g><g id="q59"><g id="xfrm60"><path id="path3194" d="M649,127.81c0-26.18-12-47.43-35.74-47.43s-35.53,21.25-35.53,47.43c0,26.43,11.76,47.67,35.53,47.67S649,154.24,649,127.81Zm41.14,0c0,49.15-28.17,87.69-76.88,87.69-48.5,0-76.92-38.54-76.92-87.69,0-48.91,28.41-87.68,76.89-87.68,48.75,0,76.91,38.77,76.91,87.68"/></g></g><g id="q61"><g id="xfrm62"><path id="path3198" d="M833.72,160.9c0,36.81-33.31,54.59-64.64,54.59-36.25,0-54.88-13.83-69.56-31.37l26.68-26.19c11.28,14.33,26,21.5,42.39,21.5,13.47,0,22.52-6.67,22.52-16.55,0-10.62-8-13.93-29.9-18.53l-5.86-1.23c-26.36-5.54-48-20.51-48-50.39,0-32.84,26.71-52.61,62-52.61,29.88,0,49.23,12.84,61,26.17l-26,25.7c-8.09-8.64-20.34-15.56-34.28-15.56-9.54,0-20.33,4.44-20.33,15.56,0,10.13,11.21,13.8,25.47,16.8l5.89,1.24c23.84,5,52.63,12.34,52.63,50.87"/></g></g><g id="q63"><g id="xfrm64"><path id="path3202" d="M992.79,179.18c-17.14,24.7-33.06,36.31-66.13,36.31-47,0-77.39-39-77.39-88.68,0-47.17,27.44-86.45,77.88-86.45,27.68,0,47.52,10.87,64.42,36.31L957.78,99.15c-6.87-11.86-15.68-18.77-30.39-18.77-18.6,0-36.5,16.64-36.5,46.44,0,33.39,19.36,48.66,37.74,48.66,15.9,0,23.26-7.91,30.12-19.27l34,23"/></g></g><g id="q65"><g id="xfrm66"><path id="path3206" d="M1149.66,211.54h-44.09V145.59h-50.71v65.95H1011V44.31h43.83v61.51h50.71V44.31h44.09V211.54"/></g></g></g></svg>