<svg xmlns="http://www.w3.org/2000/svg" xmlns:xlink="http://www.w3.org/1999/xlink" id="Layer_1" data-name="Layer 1" viewBox="0 0 93.46 10.64"><defs><style>.cls-1{fill:none}.cls-2{clip-path:url(#clip-path)}</style><clipPath id="clip-path"><rect width="93.46" height="10.64" class="cls-1"/></clipPath></defs><title>frigidaire</title><polygon points="38.8 .4 38.8 5.5 38.8 10.63 40.6 10.63 40.6 5.59 40.6 .4 38.8 .4"/><g class="cls-2"><path d="M31.23,6.3h2.61V8.22A4.22,4.22,0,0,1,31.37,9a3.42,3.42,0,0,1-3.48-3.65A3.47,3.47,0,0,1,31.21,1.7a4,4,0,0,1,2.86,1.09l1.15-1.36A5.55,5.55,0,0,0,31.28.05,5.21,5.21,0,0,0,26,5.34a5.08,5.08,0,0,0,5.3,5.29A6.48,6.48,0,0,0,35.58,9V4.74H31.23Z"/><polygon points="85.74 6.27 91.53 6.27 91.53 4.66 85.74 4.66 85.74 2 91.53 2 91.53 .4 83.94 .4 83.94 10.63 91.53 10.63 91.53 9.02 85.74 9.02 85.74 6.27"/><polygon points="21.42 5.33 21.42 10.63 23.22 10.63 23.22 5.42 23.22 .4 21.42 .4 21.42 5.33"/><path d="M18.46,3.66a3.12,3.12,0,0,0-.85-2.24,4.14,4.14,0,0,0-2.95-1H10.1V10.63h1.8V7.06h2.22l2.54,3.57h2.12L16,6.75a3.06,3.06,0,0,0,2.44-3.09M11.9,5.47V2h2.61c1.33,0,2.12.6,2.12,1.7s-.82,1.74-2.1,1.74Z"/><polygon points="0 10.63 1.8 10.63 1.8 6.46 7.61 6.46 7.61 4.83 1.8 4.83 1.8 2.03 7.62 2.03 7.62 .4 0 .4 0 10.63"/><path d="M92.68,9.08a.78.78,0,1,0,.78.78.77.77,0,0,0-.78-.78m0,1.49a.7.7,0,0,1-.7-.71.7.7,0,1,1,1.4,0,.7.7,0,0,1-.7.71"/><polygon points="67.15 5.5 67.15 10.63 68.94 10.63 68.94 5.5 68.94 .4 67.15 .4 67.15 5.5"/><path d="M48.06.4H44.24V10.63h3.82A5.12,5.12,0,1,0,48.06.4m3.55,5.14A3.34,3.34,0,0,1,48.06,9H46V2h2a3.36,3.36,0,0,1,3.55,3.48Z"/><path d="M81,3.66a3.11,3.11,0,0,0-.84-2.24,4.15,4.15,0,0,0-3-1H72.59V10.63h1.8V7.06h2.22l2.54,3.57h2.12L78.51,6.75A3.06,3.06,0,0,0,81,3.66M74.39,5.47V2H77c1.33,0,2.12.6,2.12,1.7S78.31,5.47,77,5.47Z"/><path d="M93.05,9.69A.24.24,0,0,0,93,9.52a.33.33,0,0,0-.25-.09h-.37v.82h.16V10h.17l.2.29h.19l-.22-.31a.25.25,0,0,0,.19-.25m-.33.14h-.2V9.57h.2c.11,0,.17,0,.17.13s-.06.13-.17.13"/><path d="M54.22,10.63H65.05L59.63,0ZM56.94,9,59.62,3.6,62.32,9Z"/></g></svg>