<svg id="Black_77_" data-name="Black (77%)" xmlns="http://www.w3.org/2000/svg" viewBox="0 0 108 15.12"><defs><style>.cls-1{fill:#231f20;}</style></defs><title>Kenmore-Elite</title><path class="cls-1" d="M0,14.77V.09H2V14.77Zm12.12,0H9.27L2.33,6.82,9.27.09h2.81L5,6.94Z"/><path class="cls-1" d="M15.91,13.22a4.33,4.33,0,0,0,.83-.08,3.61,3.61,0,0,0,.72-.25,3.24,3.24,0,0,0,.65-.44,6.57,6.57,0,0,0,.63-.65L20,13.17a4.66,4.66,0,0,1-1.86,1.39,5.86,5.86,0,0,1-2.36.48,4.86,4.86,0,0,1-2-.39,4.66,4.66,0,0,1-1.57-1.07,4.86,4.86,0,0,1-1-1.6,5.06,5.06,0,0,1-.38-2,5.77,5.77,0,0,1,.31-1.92,4.58,4.58,0,0,1,.94-1.58A4.21,4.21,0,0,1,13.61,5.4,5,5,0,0,1,15.69,5a5.27,5.27,0,0,1,1.88.33,4.55,4.55,0,0,1,1.49,1,4.27,4.27,0,0,1,1,1.5,5.11,5.11,0,0,1,.36,2,4,4,0,0,1,0,.48c0,.17,0,.34-.05.51H12.76a3.84,3.84,0,0,0,.27.81A2.67,2.67,0,0,0,14.51,13a3.41,3.41,0,0,0,1.4.25m-.22-6.66a3.11,3.11,0,0,0-1.15.2,2.65,2.65,0,0,0-.85.57,3,3,0,0,0-.57.86,4.36,4.36,0,0,0-.33,1h5.59a3.5,3.5,0,0,0-.26-1,2.94,2.94,0,0,0-.55-.86,2.78,2.78,0,0,0-.82-.58A2.45,2.45,0,0,0,15.69,6.56Z"/><path class="cls-1" d="M23,6.49a3.26,3.26,0,0,1,.83-.86,3.2,3.2,0,0,1,.87-.43,3.1,3.1,0,0,1,.8-.17l.64,0a3.24,3.24,0,0,1,1.2.23,3.33,3.33,0,0,1,1,.63,2.84,2.84,0,0,1,.67.93,2.5,2.5,0,0,1,.25,1.11v6.87h-2V8.49a2.09,2.09,0,0,0-.12-.72,1.69,1.69,0,0,0-.36-.56,1.66,1.66,0,0,0-.56-.37,1.8,1.8,0,0,0-.71-.13,2.07,2.07,0,0,0-.95.22,2.46,2.46,0,0,0-.78.62,3.19,3.19,0,0,0-.53.94A3.29,3.29,0,0,0,23,9.63v5.14H21V5.27h2V6.49"/><path class="cls-1" d="M41.66,5a3.26,3.26,0,0,1,1.21.23,3.07,3.07,0,0,1,1,.63,2.88,2.88,0,0,1,.66.92,2.56,2.56,0,0,1,.24,1.1v6.89h-2V8.49a2.09,2.09,0,0,0-.13-.72,1.65,1.65,0,0,0-.37-.58,1.45,1.45,0,0,0-.56-.37A1.94,1.94,0,0,0,41,6.68a2.18,2.18,0,0,0-.86.18,2.38,2.38,0,0,0-.77.48,2.65,2.65,0,0,0-.55.73,2.17,2.17,0,0,0-.2.92v5.78h-2V8.49a1.88,1.88,0,0,0-.13-.72,1.78,1.78,0,0,0-.36-.58,1.52,1.52,0,0,0-.56-.37,1.78,1.78,0,0,0-.7-.14,2.16,2.16,0,0,0-1,.23,2.64,2.64,0,0,0-.78.63,3.25,3.25,0,0,0-.73,2.06v5.17h-2V5.27h2V6.49a3.11,3.11,0,0,1,.83-.86A3.2,3.2,0,0,1,34,5.2,3.24,3.24,0,0,1,34.83,5l.64,0a3.15,3.15,0,0,1,.87.12,2.64,2.64,0,0,1,.79.33,3.3,3.3,0,0,1,.65.52,2.79,2.79,0,0,1,.48.66,3.51,3.51,0,0,1,.91-.93,4.1,4.1,0,0,1,.95-.49A3.75,3.75,0,0,1,41,5l.67,0"/><path class="cls-1" d="M50.3,5a5.22,5.22,0,0,1,3.59,1.38A5.12,5.12,0,0,1,55,8a4.93,4.93,0,0,1,.41,2A5.12,5.12,0,0,1,55,12a4.93,4.93,0,0,1-2.68,2.63,5.06,5.06,0,0,1-1.9.37,5.63,5.63,0,0,1-2.09-.38,5,5,0,0,1-1.65-1A4.81,4.81,0,0,1,45.61,12a5.19,5.19,0,0,1-.38-2,4.62,4.62,0,0,1,.41-2,5,5,0,0,1,1.12-1.58,5.14,5.14,0,0,1,1.62-1A5.21,5.21,0,0,1,50.3,5m.09,1.84a3.26,3.26,0,0,0-1.26.25,3,3,0,0,0-1.66,1.68,3.35,3.35,0,0,0-.24,1.28,3.22,3.22,0,0,0,.24,1.26A3,3,0,0,0,49.14,13a3.23,3.23,0,0,0,1.25.23A3.09,3.09,0,0,0,51.56,13a3,3,0,0,0,1-.67,3,3,0,0,0,.66-1A3.51,3.51,0,0,0,53.43,10a3,3,0,0,0-.24-1.21,3.17,3.17,0,0,0-.64-1,3.08,3.08,0,0,0-2.16-.91Z"/><path class="cls-1" d="M61.26,6.87a1.31,1.31,0,0,0-.38-.09,2.54,2.54,0,0,0-.41,0,2.12,2.12,0,0,0-1,.23,2.4,2.4,0,0,0-.77.62,2.83,2.83,0,0,0-.51.94A3.61,3.61,0,0,0,58,9.75v5H56V5.27h2V6.46a2.8,2.8,0,0,1,.81-.83,3.4,3.4,0,0,1,.88-.43A3.33,3.33,0,0,1,60.51,5l.64,0a2.94,2.94,0,0,1,.65.07l-.54,1.8"/><path class="cls-1" d="M65.91,13.22a4.25,4.25,0,0,0,.83-.08,3.61,3.61,0,0,0,.72-.25,3,3,0,0,0,.65-.44,5.61,5.61,0,0,0,.63-.65L70,13.17a4.7,4.7,0,0,1-1.85,1.39,5.91,5.91,0,0,1-2.37.48,4.9,4.9,0,0,1-2-.39,4.76,4.76,0,0,1-1.57-1.07,4.86,4.86,0,0,1-1-1.6,5.24,5.24,0,0,1-.38-2,5.77,5.77,0,0,1,.32-1.92,4.56,4.56,0,0,1,.93-1.58A4.29,4.29,0,0,1,63.61,5.4,5,5,0,0,1,65.69,5a5.23,5.23,0,0,1,1.88.33,4.59,4.59,0,0,1,1.5,1,4.56,4.56,0,0,1,1,1.5,5.11,5.11,0,0,1,.35,2c0,.15,0,.31,0,.48s0,.34-.05.51H62.76a4.61,4.61,0,0,0,.28.81,2.65,2.65,0,0,0,.55.81,2.73,2.73,0,0,0,.93.61,3.36,3.36,0,0,0,1.39.25m-.22-6.66a3.11,3.11,0,0,0-1.15.2,2.71,2.71,0,0,0-.84.57,3,3,0,0,0-.58.86,4.85,4.85,0,0,0-.32,1h5.59a3.51,3.51,0,0,0-.27-1,2.94,2.94,0,0,0-.55-.86,2.54,2.54,0,0,0-.82-.58A2.42,2.42,0,0,0,65.69,6.56Z"/><path class="cls-1" d="M108,13.72a.91.91,0,1,1-.91-.91A.91.91,0,0,1,108,13.72Zm-1.67,0a.76.76,0,1,0,.76-.76A.76.76,0,0,0,106.33,13.72Zm.36-.48H107a.54.54,0,0,1,.26,0,.25.25,0,0,1,.16.22.28.28,0,0,1-.28.28h0c.07,0,.13.08.23.24l.11.19h-.19l-.09-.15c-.12-.22-.17-.26-.29-.26h-.09v.41h-.16Zm.35.43c.17,0,.24,0,.24-.15s-.07-.14-.25-.14h-.18v.29Z"/><path class="cls-1" d="M82.67.28v2H76.56V5.91h6.11v2H76.56v5h6.11v2H74.59V.28Z"/><path class="cls-1" d="M86.42,0V14.86h-2V0Z"/><path class="cls-1" d="M90.55,2.32a1.4,1.4,0,0,1-2.79,0,1.4,1.4,0,0,1,2.79,0Zm-.39,3.09v9.45h-2V5.41Z"/><path class="cls-1" d="M94.42,2.67V5.41h2V7.24h-2v7.62h-2V7.24H90.86V5.39h1.57V2.67Z"/><path class="cls-1" d="M104.26,11.91l1.27,1.36a5.34,5.34,0,0,1-4.2,1.85,4.87,4.87,0,0,1-4.92-5,4.64,4.64,0,0,1,4.83-4.94,4.5,4.5,0,0,1,4.69,4.71,8.52,8.52,0,0,1-.07,1H98.33a2.92,2.92,0,0,0,3.12,2.46A3.31,3.31,0,0,0,104.26,11.91Zm-5.9-2.56h5.55a2.76,2.76,0,0,0-2.67-2.65A2.85,2.85,0,0,0,98.36,9.35Z"/></svg>