<svg id="black" xmlns="http://www.w3.org/2000/svg" viewBox="0 0 108 22.22"><title>kenmore</title><path d="M0,21.83V0H3V21.83Zm18,0H13.79L3.46,10,13.79,0H18L7.44,10.18Z"/><path d="M23.65,19.51a6,6,0,0,0,1.24-.12A4.5,4.5,0,0,0,26,19a5.3,5.3,0,0,0,1-.65,11,11,0,0,0,.94-1l1.88,2A7.09,7.09,0,0,1,27,21.52a8.77,8.77,0,0,1-3.51.7,7.42,7.42,0,0,1-2.92-.57,7.15,7.15,0,0,1-2.33-1.59,7.31,7.31,0,0,1-1.55-2.38,7.68,7.68,0,0,1-.57-3,8.4,8.4,0,0,1,.48-2.85A6.8,6.8,0,0,1,18,9.49a6.62,6.62,0,0,1,2.26-1.6,7.72,7.72,0,0,1,3.1-.59,7.52,7.52,0,0,1,2.79.5,6.38,6.38,0,0,1,3.7,3.64,7.75,7.75,0,0,1,.53,2.92c0,.23,0,.47,0,.72s0,.5-.08.75H19a5.52,5.52,0,0,0,.4,1.21,4,4,0,0,0,2.2,2.11,5.26,5.26,0,0,0,2.07.36m-.32-9.9a4.31,4.31,0,0,0-1.71.31,4.06,4.06,0,0,0-1.26.85A4.16,4.16,0,0,0,19.51,12,6.51,6.51,0,0,0,19,13.59h8.31a5.18,5.18,0,0,0-.4-1.51,4.33,4.33,0,0,0-.82-1.27,3.82,3.82,0,0,0-1.22-.87A3.65,3.65,0,0,0,23.33,9.61Z"/><path d="M34.16,9.51a4.83,4.83,0,0,1,1.23-1.27,5.21,5.21,0,0,1,1.29-.65,5,5,0,0,1,1.2-.25c.38,0,.69,0,.94,0a4.67,4.67,0,0,1,1.79.34,4.62,4.62,0,0,1,1.48.94,4.39,4.39,0,0,1,1,1.37,4,4,0,0,1,.36,1.67V21.83h-3V12.49a2.83,2.83,0,0,0-.19-1.07,2.27,2.27,0,0,0-.53-.84,2.46,2.46,0,0,0-.82-.55,2.82,2.82,0,0,0-1.06-.2,3.13,3.13,0,0,0-1.42.34,3.78,3.78,0,0,0-1.16.92,4.59,4.59,0,0,0-.78,1.39,4.8,4.8,0,0,0-.29,1.71v7.64h-3V7.69h2.91V9.51"/><path d="M61.94,7.3a4.69,4.69,0,0,1,1.8.34,4.53,4.53,0,0,1,1.46.94,4.39,4.39,0,0,1,1,1.36,3.81,3.81,0,0,1,.36,1.64V21.83h-3V12.49a2.92,2.92,0,0,0-.19-1.08,3,3,0,0,0-.54-.86A2.32,2.32,0,0,0,62,10a3,3,0,0,0-1.08-.2,3.45,3.45,0,0,0-1.29.26,3.79,3.79,0,0,0-1.14.72,3.74,3.74,0,0,0-.81,1.08,3,3,0,0,0-.31,1.37v8.6h-3V12.49a2.92,2.92,0,0,0-.2-1.08,2.62,2.62,0,0,0-.54-.86,2.32,2.32,0,0,0-.82-.55,2.77,2.77,0,0,0-1.05-.2,3,3,0,0,0-1.43.34,3.65,3.65,0,0,0-1.17.94,4.65,4.65,0,0,0-.79,1.38,4.84,4.84,0,0,0-.29,1.67v7.7H45.13V7.69h2.92V9.51a4.65,4.65,0,0,1,1.22-1.27,5.17,5.17,0,0,1,2.52-.9c.38,0,.7,0,1,0a5.09,5.09,0,0,1,1.3.17,4.28,4.28,0,0,1,1.18.5,4.51,4.51,0,0,1,1,.77,4.43,4.43,0,0,1,.7,1,5.34,5.34,0,0,1,1.35-1.37,5.54,5.54,0,0,1,1.41-.72A5.25,5.25,0,0,1,61,7.34c.4,0,.73,0,1,0"/><path d="M74.79,7.3a7.93,7.93,0,0,1,2.92.54,7.21,7.21,0,0,1,4.07,3.85,7.23,7.23,0,0,1,.62,3,7.59,7.59,0,0,1-.6,3.06,7.34,7.34,0,0,1-1.62,2.37A7.47,7.47,0,0,1,75,22.22a8.49,8.49,0,0,1-3.12-.55,7.29,7.29,0,0,1-2.45-1.56,6.85,6.85,0,0,1-1.6-2.37,7.7,7.7,0,0,1-.58-3,7.09,7.09,0,0,1,.62-2.95,7.38,7.38,0,0,1,1.66-2.34,7.75,7.75,0,0,1,2.41-1.56,7.49,7.49,0,0,1,2.85-.55M74.93,10a4.76,4.76,0,0,0-1.87.36,4.58,4.58,0,0,0-1.48,1,4.71,4.71,0,0,0-1,1.51,5,5,0,0,0-.36,1.9,4.82,4.82,0,0,0,.36,1.89,4.49,4.49,0,0,0,2.49,2.45,4.91,4.91,0,0,0,1.85.34,4.48,4.48,0,0,0,1.75-.35,4.42,4.42,0,0,0,1.43-1,4.52,4.52,0,0,0,1-1.52,5.17,5.17,0,0,0,.36-2,4.72,4.72,0,0,0-1.31-3.28A4.45,4.45,0,0,0,74.93,10Z"/><path d="M91.09,10.07a2.68,2.68,0,0,0-.56-.13,3.78,3.78,0,0,0-.6,0,3.06,3.06,0,0,0-1.44.34,3.59,3.59,0,0,0-1.14.92,4.45,4.45,0,0,0-.77,1.41,5.65,5.65,0,0,0-.27,1.79v7.47h-3V7.69h2.91V9.47a4.62,4.62,0,0,1,1.21-1.24,5.45,5.45,0,0,1,1.31-.64A5.27,5.27,0,0,1,90,7.34c.38,0,.7,0,1,0a4.75,4.75,0,0,1,1,.1l-.81,2.67"/><path d="M98,19.51a6,6,0,0,0,1.23-.12,4.21,4.21,0,0,0,1.07-.36,5,5,0,0,0,1-.65,9.74,9.74,0,0,0,.94-1l1.89,2a7.09,7.09,0,0,1-2.76,2.07,8.84,8.84,0,0,1-3.51.7,7.38,7.38,0,0,1-2.92-.57,7,7,0,0,1-2.33-1.59A7.16,7.16,0,0,1,91,17.68a7.68,7.68,0,0,1-.57-3,8.65,8.65,0,0,1,.47-2.85,7,7,0,0,1,1.39-2.36,6.52,6.52,0,0,1,2.26-1.6,7.71,7.71,0,0,1,3.09-.59,7.53,7.53,0,0,1,2.8.5,6.35,6.35,0,0,1,2.22,1.42,6.6,6.6,0,0,1,1.48,2.22,7.75,7.75,0,0,1,.53,2.92q0,.35,0,.72c0,.25,0,.5-.07.75H93.33a6.83,6.83,0,0,0,.4,1.21,4.11,4.11,0,0,0,.83,1.2,4,4,0,0,0,1.38.91,5.23,5.23,0,0,0,2.07.36m-.33-9.9a4.23,4.23,0,0,0-1.7.31,3.84,3.84,0,0,0-1.26.85A4.19,4.19,0,0,0,93.86,12a7,7,0,0,0-.48,1.55h8.31a5.17,5.17,0,0,0-.39-1.51,4.54,4.54,0,0,0-.82-1.27,3.94,3.94,0,0,0-1.22-.87A3.66,3.66,0,0,0,97.68,9.61Z"/><path d="M108,20.26a1.35,1.35,0,1,1-1.35-1.35A1.36,1.36,0,0,1,108,20.26Zm-2.48,0a1.13,1.13,0,1,0,1.13-1.13A1.13,1.13,0,0,0,105.52,20.26Zm.54-.7h.49a1,1,0,0,1,.4,0,.4.4,0,0,1,.23.34.42.42,0,0,1-.42.42h0c.11,0,.19.13.34.37l.18.28H107l-.13-.23c-.18-.32-.25-.39-.43-.39h-.14V21h-.23Zm.52.63c.24,0,.35-.07.35-.22s-.1-.22-.37-.22h-.27v.44Z"/></svg>