<svg id="Layer_1" data-name="Layer 1" xmlns="http://www.w3.org/2000/svg" viewBox="0 0 420.7 47.22"><title>KitchenAid</title><path d="M35.78,17,47.58,0H34.21L24.64,16.54a5.36,5.36,0,0,1-4,2.45H18.4V0H0V45.54H18.34v-14h2.91c1.33,0,2,.48,2.72,2.22l5.15,11.75H51.28L41,22.71a6.31,6.31,0,0,0-5.57-3.48c-.6,0-1.2.07.37-2.22"/><path d="M35.78,17,47.58,0H34.21L24.64,16.54a5.36,5.36,0,0,1-4,2.45H18.4V0H0V45.54H18.34v-14h2.91c1.33,0,2,.48,2.72,2.22l5.15,11.75H51.28L41,22.71a6.31,6.31,0,0,0-5.57-3.48C34.81,19.23,34.21,19.3,35.78,17Z"/><rect x="57.21" y="19.07" width="17.31" height="26.43"/><rect x="57.21" y="19.07" width="17.31" height="26.43"/><path d="M66.15,16.84c4.79-.44,8.52-3.69,8.32-7.27s-4.23-6.12-9-5.68-8.52,3.7-8.33,7.27,4.23,6.12,9,5.68"/><path d="M66.15,16.84c4.79-.44,8.52-3.69,8.32-7.27s-4.23-6.12-9-5.68-8.52,3.7-8.33,7.27S61.36,17.28,66.15,16.84Z"/><path d="M79.3,18.91h5.81V10.05h16.35v8.86h6.78v8.71H101.7v5.22c0,5.22,4.6,4.91,6.66,2.53v7.44c-6.29,3.64-16.65,4.59-20.82.87-2.18-2-2.43-3.56-2.43-5.93v-10H79.3V18.91"/><path d="M79.3,18.91h5.81V10.05h16.35v8.86h6.78v8.71H101.7v5.22c0,5.22,4.6,4.91,6.66,2.53v7.44c-6.29,3.64-16.65,4.59-20.82.87-2.18-2-2.43-3.56-2.43-5.93v-10H79.3Z"/><path d="M146.63,20.42c-9-5.86-21.15-4.83-27.18-.56-9.65,6.85-9.5,18-.12,24.38,6.78,4.59,22.89,3.32,27.24-1.9V35c-6.41,4.27-10.88,3.65-13.56,2.45-4.17-1.87-4.27-9.57,1.09-10.92A14.86,14.86,0,0,1,146.63,29V20.42"/><path d="M146.63,20.42c-9-5.86-21.15-4.83-27.18-.56-9.65,6.85-9.5,18-.12,24.38,6.78,4.59,22.89,3.32,27.24-1.9V35c-6.41,4.27-10.88,3.65-13.56,2.45-4.17-1.87-4.27-9.57,1.09-10.92A14.86,14.86,0,0,1,146.63,29Z"/><path d="M151,3.8V45.5h16.28V32.68c.24-8.07,8-6.57,8-.63V45.5h16.23V29c0-7.76-10.66-16.46-24.1-7.6l.24-17.64H151"/><path d="M151,3.8V45.5h16.28V32.68c.24-8.07,8-6.57,8-.63V45.5h16.23V29c0-7.76-10.66-16.46-24.1-7.6l.24-17.64Z"/><path d="M240.37,19V45.5h17.44V31.26c0-4.91,7.87-7.28,7.87.15V45.34h15.37V29.2c0-7.57-8.27-17.35-23.24-7.28V19H240.37"/><path d="M240.37,19V45.5h17.44V31.26c0-4.91,7.87-7.28,7.87.15V45.34h15.37V29.2c0-7.57-8.27-17.35-23.24-7.28V19Z"/><rect x="343.11" y="19.05" width="17.31" height="26.43"/><rect x="343.11" y="19.05" width="17.31" height="26.43"/><path d="M352.05,16.81c4.79-.43,8.51-3.69,8.32-7.27s-4.23-6.11-9-5.67-8.51,3.69-8.32,7.27,4.23,6.12,9,5.67"/><path d="M352.05,16.81c4.79-.43,8.51-3.69,8.32-7.27s-4.23-6.11-9-5.67-8.51,3.69-8.32,7.27S347.26,17.26,352.05,16.81Z"/><path d="M411.36,8.05a4.67,4.67,0,0,1,9.34,0,4.67,4.67,0,0,1-9.34,0Zm8.46,0A3.79,3.79,0,1,0,416,11.78,3.73,3.73,0,0,0,419.82,8.05Zm-1.47,2.5h-1.14l-1.13-2.09h-1v2.09h-1v-5h2.44a2.86,2.86,0,0,1,1.36.23,1.39,1.39,0,0,1,.59,1.28c0,.91-.48,1.29-1.37,1.35Zm-1.78-2.84c.56,0,.95-.12.95-.74s-.72-.66-1.21-.66h-1.22v1.4Z"/><path d="M234.44,35.37a145.41,145.41,0,0,0-22.76-.16c3.39,7.28,17.19,6.18,21.79,1.43L233,42.81c-9.2,7.12-37.29,6.81-37.78-9.81-.43-14.68,16.22-16.78,19.86-16.78C223.66,16.22,236.25,21.44,234.44,35.37Zm-22.08-6.8h6.48c.11-2.69-1.64-4-3.49-4-1.55,0-3,1.75-3,4"/><path d="M234.44,35.37a145.41,145.41,0,0,0-22.76-.16c3.39,7.28,17.19,6.18,21.79,1.43L233,42.81c-9.2,7.12-37.29,6.81-37.78-9.81-.43-14.68,16.22-16.78,19.86-16.78C223.66,16.22,236.25,21.44,234.44,35.37Zm-22.08-6.8h6.48c.11-2.69-1.64-4-3.49-4C213.8,24.54,212.36,26.29,212.36,28.57Z"/><path d="M301.52,4.67c.6-1.59,0-3.48-2.18-4.59h22.28l17.43,45.3h-22.4l-3.51-10.17H298.37l-4.06,10.17h-9.44Zm9,22.63L306.36,15,301.28,27.3h9.19"/><path d="M301.52,4.67c.6-1.59,0-3.48-2.18-4.59h22.28l17.43,45.3h-22.4l-3.51-10.17H298.37l-4.06,10.17h-9.44Zm9,22.63L306.36,15,301.28,27.3Z"/><path d="M407.82,3.88V45.34H391.48V42.49c-8.11,8.23-26.28,3.8-26.28-9.49,0-16.31,19.74-18.52,26.4-12.82V3.88ZM391.45,28.64c-2.92-2.82-8.51-2.12-8.51,2.4,0,6.5,6.65,5.37,8.51,3.39V28.64"/><path d="M407.82,3.88V45.34H391.48V42.49c-8.11,8.23-26.28,3.8-26.28-9.49,0-16.31,19.74-18.52,26.4-12.82V3.88ZM391.45,28.64c-2.92-2.82-8.51-2.12-8.51,2.4,0,6.5,6.65,5.37,8.51,3.39Z"/></svg>