<svg xmlns="http://www.w3.org/2000/svg" id="Layer_1" data-name="Layer 1" viewBox="0 0 148.27 64.6"><defs><style>.cls-1{fill:#231f20}.cls-2{fill:#fff}</style></defs><title>LG</title><polygon points="80.74 13.08 92.14 13.08 92.14 42.03 109.07 42.03 109.07 51.69 80.74 51.69 80.74 13.08" class="cls-1"/><path d="M138.57,47.84c-2,3.08-5.73,4.8-10.39,4.8-10,0-16.56-8-16.56-20.3,0-12.51,7.36-20.22,19.5-20.22a19.64,19.64,0,0,1,12.2,3.76c3.23,2.55,4.43,5.06,5,10.15H136.35a5.3,5.3,0,0,0-5.48-4.89c-4.6,0-7.3,4.27-7.3,11.35s2.8,11.5,7.5,11.5c3.71,0,5.85-2.07,6.73-6.67h-7.35V29.2h17.82V51.69h-9.7Z" class="cls-1"/><path d="M32.3,0A32.3,32.3,0,1,0,64.6,32.3,32.3,32.3,0,0,0,32.3,0" class="cls-1"/><path d="M25.86,22A3.87,3.87,0,1,1,22,18.11,3.87,3.87,0,0,1,25.86,22" class="cls-2"/><path d="M51.42,51.41A27,27,0,1,1,32.3,5.26h1.29V7.79H32.3A24.51,24.51,0,0,0,15,49.62,24.51,24.51,0,0,0,56.75,34c0-.06,0-.32,0-.38H40V31.07h19.3v1.23a26.89,26.89,0,0,1-7.91,19.12" class="cls-2"/><polygon points="40.01 43.91 40.01 46.44 31.01 46.44 31.01 18.12 33.59 18.12 33.59 43.91 40.01 43.91" class="cls-2"/></svg>