<svg xmlns="http://www.w3.org/2000/svg" xmlns:xlink="http://www.w3.org/1999/xlink" id="Layer_1" data-name="Layer 1" viewBox="0 0 62.29 21.45"><defs><style>.cls-1{fill:none}.cls-2{clip-path:url(#clip-path)}</style><clipPath id="clip-path"><rect width="62.28" height="21.45" class="cls-1"/></clipPath></defs><title>samsung</title><g class="cls-2"><path d="M17.48,13.94h1.63L17.89,7.69h-2.5l-1.23,6.25h1.63l.84-4.71m5.88,4.57V9.46h0l1,4.34h1.62L26,9.46h0l0,4.34H27.5V7.55H25l-.72,3.69h0l-.7-3.69H21V13.8Zm7.09-2.09v.67c0,.82.63,1.57,2.1,1.57s2.08-.66,2.08-1.86a1.76,1.76,0,0,0-.6-1.5,13,13,0,0,0-1.5-.88c-.33-.2-.54-.39-.49-.77a.48.48,0,0,1,.56-.42c.53,0,.51.54.53.91h1.49a1.83,1.83,0,0,0-2.05-2c-1.25,0-2,.6-2,1.78a1.75,1.75,0,0,0,.47,1.25,5.07,5.07,0,0,0,1.22.81c.42.24.9.44.9,1,0,.32-.16.63-.54.63s-.64-.32-.64-.68v-.44Zm6.34.37c0,1.28.8,1.87,2.17,1.87,1.65,0,2.17-.81,2.17-1.87V7.55H38.66v4.68a.54.54,0,0,1-.55.6.49.49,0,0,1-.56-.56V7.55H35.94Zm10,1.72h1.79V7.55h-1.4l0,3.49h0L44.5,7.55H42.7V13.8h1.39V10Zm5.76.17a92.09,92.09,0,0,1-18.82,5.62C15.69,22.92,1,21.66.05,16.77c-.48-2.48,2.66-5.43,8.13-8.16l.1,0a2,2,0,0,0-.15.81,1.74,1.74,0,0,0,.46,1.25,4.81,4.81,0,0,0,1.22.82c.43.23.9.43.9,1a.55.55,0,0,1-.54.62c-.51,0-.64-.31-.64-.67V11.9H8v.67c0,.83.63,1.58,2.11,1.58s2.07-.67,2.07-1.87a1.73,1.73,0,0,0-.6-1.49,11,11,0,0,0-1.5-.89c-.32-.2-.53-.39-.49-.76a.47.47,0,0,1,.56-.42c.53,0,.52.53.53.9H12.2a1.79,1.79,0,0,0-1.87-2l.05,0a90.8,90.8,0,0,1,19-5.71C46.59-1.47,61.28-.21,62.24,4.68c.47,2.46-2.59,5.36-7.94,8.06l0,0V10.41H52.06v.71h.58v.63c0,.4,0,.8-.57.8s-.6-.21-.6-.56V9.18c0-.41.12-.66.62-.66s.51.28.51.81v.35h1.61V9.21c0-1.28-.81-1.81-2.19-1.81s-2.16.63-2.16,2V12c0,1.13.44,2,1.8,2h.08Z"/></g></svg>