<svg xmlns="http://www.w3.org/2000/svg" viewBox="0 0 1260 399.6"><title>Whirlpool</title><g id="Subword_Black" data-name="Subword Black"><path d="M1238.44,84.16c-12.67,0-21.68-9.48-21.68-22,0-13.26,10-22,21.68-22s21.56,8.77,21.56,22S1250,84.16,1238.44,84.16Zm0-40.23c-9.54,0-17,7.48-17,18.2,0,10,6.48,18.21,17,18.21,9.42,0,16.85-7.43,16.85-18.21S1247.86,43.93,1238.44,43.93Zm-4.36,30.81h-4V50.35h9.25c5.89,0,8.9,2.06,8.9,7,0,4.42-2.71,6.24-6.37,6.66l6.84,10.72h-4.54l-6.3-10.43h-3.77Zm4.47-13.85c3,0,5.66-.29,5.66-3.83,0-2.94-2.89-3.29-5.3-3.29h-4.83v7.12Z"/></g><g id="_2017_1-colorBlk" data-name="2017_1-colorBlk"><path d="M282.91,43.27,221.23,268.7H185.38L141.78,105,97.54,268.7H61.69L0,43.27H35.53L79.45,207,123.69,43.27H158.9L203.47,207,247.39,43.27Z"/><path d="M299.36,43.92,334.89,41V96.24l-.65,20.67h1.3c16.46-6.14,29.71-9,45.86-9,28.74,0,48.12,12.92,48.12,62.33V268.7H394V173.1c0-29.71-14.53-33.58-31-33.58-10.34,0-19.06,2.26-28.1,4.84V268.7H299.36Z"/><path d="M478.27,46.18c18.41,0,21.32,10.66,21.32,22.61s-3.88,22.93-21.32,22.93-21-11-21-22.93S460.51,46.18,478.27,46.18Zm-17.76,64H496V268.7H460.51Z"/><path d="M526.06,110.13h24.23L555.13,123h2.27c9.36-8.07,24.21-15.18,43.59-15.18a58.44,58.44,0,0,1,7.43.33v34.87a136.76,136.76,0,0,0-20-1.93c-9.69,0-17.44,2.26-26.81,6.46V268.7H526.06Z"/><path d="M623.59,268.7V43.92L659.12,41V268.7Z"/><path d="M911.65,107.86c50.39,0,69.77,29.72,69.77,82.36,0,49.41-18.09,81.71-70.41,81.71s-70.73-32.3-70.73-81.71C840.28,137.58,861.27,107.86,911.65,107.86Zm33.6,82.36c0-30-4.86-54.58-33.27-54.58-28.74,0-35.85,23.58-35.85,54.58,0,28.74,5.81,53.61,34.24,53.61S945.25,220.25,945.25,190.22Z"/><path d="M1071,107.86c50.38,0,69.77,29.72,69.77,82.36,0,49.41-18.09,81.71-70.42,81.71s-70.73-32.3-70.73-81.71C999.57,137.58,1020.57,107.86,1071,107.86Zm33.59,82.36c0-30-4.85-54.58-33.26-54.58-28.75,0-35.86,23.58-35.86,54.58,0,28.74,5.82,53.61,34.24,53.61S1104.54,220.25,1104.54,190.22Z"/><path d="M1163.72,268.7V43.92L1199.24,41V268.7Z"/><path d="M688.18,110.12H715l2.91,11.63c10.66-5.82,30.35-13.89,48.12-13.89,32.29,0,55.86,23.58,55.86,80.09,0,55.56-24.87,83-66.2,83-15.21,0-32-3.23-32-3.23v72.66l-35.53,3.88Zm35.53,129.19c10,.32,15.5.64,25.83.64,22,0,36.5-11.62,36.5-57.81,0-31.65-12.92-40-36.17-40a80.63,80.63,0,0,0-26.16,4.52Z"/><path d="M864.06,12.69C837.49-18.1,753.19,9,659.12,74.07V90.48C742,31.59,815,4.42,835.92,28.65c26.11,30.26-38.85,129.24-145.13,221S477.14,391.06,451,360.8c-13.56-15.72-2.5-50,26.12-92.1H460.5C425.07,321.54,411.79,365.94,430,387,463.14,425.45,587.2,372.87,707,269.46S897.22,51.12,864.06,12.69Z"/></g></svg>